<svg xmlns="http://www.w3.org/2000/svg" xmlns:xlink="http://www.w3.org/1999/xlink" version="1.1" x="0px" y="0px" viewBox="0 0 48 48" enable-background="new 0 0 48 48" xml:space="preserve"><g><path fill="none" stroke="#000000" stroke-width="2" stroke-linecap="round" stroke-linejoin="round" stroke-miterlimit="10" d="   M47,44.125C47,45.707,45.706,47,44.125,47H3.875C2.294,47,1,45.707,1,44.125V3.875C1,2.293,2.294,1,3.875,1h40.25   C45.706,1,47,2.293,47,3.875V44.125z"/><polyline fill="none" stroke="#000000" stroke-width="2" stroke-linecap="round" stroke-linejoin="round" stroke-miterlimit="10" points="   5.452,37.663 9.923,28.885 13.236,37.663 20.356,20.937 22.987,30.873 27.146,27.395 32.445,36.669 40.893,10.337 42.548,15.802     "/><line fill="none" stroke="#000000" stroke-width="2" stroke-linecap="round" stroke-linejoin="round" stroke-miterlimit="10" x1="5.452" y1="6.176" x2="11.605" y2="6.176"/><line fill="none" stroke="#000000" stroke-width="2" stroke-linecap="round" stroke-linejoin="round" stroke-miterlimit="10" x1="15.858" y1="6.176" x2="22.012" y2="6.176"/><line fill="none" stroke="#000000" stroke-width="2" stroke-linecap="round" stroke-linejoin="round" stroke-miterlimit="10" x1="26.266" y1="6.176" x2="26.266" y2="6.176"/></g></svg>